<?xml version="1.0" ?><!DOCTYPE svg  PUBLIC '-//W3C//DTD SVG 1.1//EN'  'http://www.w3.org/Graphics/SVG/1.1/DTD/svg11.dtd'><svg enable-background="new 0 0 144.083 144" height="144px" id="Twitter" version="1.1" viewBox="0 0 144.083 144" width="144.083px" xml:space="preserve" xmlns="http://www.w3.org/2000/svg" xmlns:xlink="http://www.w3.org/1999/xlink"><path d="M72.041,11.166c-33.543,0-60.833,27.29-60.833,60.834c0,33.545,27.29,60.834,60.833,60.834  c33.544,0,60.835-27.289,60.835-60.834C132.875,38.456,105.584,11.166,72.041,11.166z M72.041,126.834  c-30.235,0-54.833-24.598-54.833-54.834c0-30.235,24.598-54.834,54.833-54.834c30.235,0,54.835,24.599,54.835,54.834  C126.875,102.236,102.276,126.834,72.041,126.834z"/><path d="M99.208,52.18c1.398-0.722,4.746-2.867,6.324-7.471c0,0-3.803,2.75-8.979,3.074l-0.094,0.052  c-2.648-2.89-6.455-4.703-10.688-4.703c-8.008,0-14.499,6.492-14.499,14.5c0,1.215,0.151,2.395,0.434,3.523l-0.07-0.105  c0,0-15.53,0.89-30.171-15.127c0,0-6.473,11.001,4.61,19.414c-2.427,0.404-6.713-1.78-6.713-1.78s0.242,11.566,11.728,14.398  c-1.86,0.486-5.339,0.646-6.471,0.162c0,0,1.698,8.816,13.428,10.354c-2.993,1.699-8.574,6.875-21.194,5.904  c0,0,9.062,7.441,25.887,6.391s29.04-12.377,33.974-24.348c4.934-11.971,3.561-18.787,3.561-18.787s4.123-2.164,6.957-7.34  c-1.309,0.392-6.164,1.578-7.971,2.017C99.243,52.266,99.225,52.223,99.208,52.18z"/></svg>