<?xml version="1.0" encoding="iso-8859-1"?>
<!-- Generator: Adobe Illustrator 21.1.0, SVG Export Plug-In . SVG Version: 6.00 Build 0)  -->
<svg version="1.1" id="Layer_1" xmlns="http://www.w3.org/2000/svg" xmlns:xlink="http://www.w3.org/1999/xlink" x="0px" y="0px"
	 viewBox="0 0 24 24" enable-background="new 0 0 24 24" xml:space="preserve">
<g>
	<path fill="#303C42" d="M24,12c0-6.6166992-5.3828125-12-12-12S0,5.3833008,0,12
		c0,3.2684326,1.4207153,5.694458,4.2019043,7.2302246C4.7543945,23.104126,6.4399414,24,12,24
		c5.4047852,0,7.1515503-0.8381958,7.7524414-4.4431763C22.5635986,18.1030273,24,15.5686035,24,12z"/>
	<path fill="#F3F3F3" d="M22.9085083,13.375C21.7039795,12.2470703,21,10.6651001,21,9
		c0-0.8516235,0.1836548-1.6893921,0.5344849-2.4624634C22.4614868,8.1491089,23,10.0111084,23,12
		C23,12.4837646,22.9638062,12.9372559,22.9085083,13.375z"/>
	<circle fill="#F3F3F3" cx="12" cy="7" r="5"/>
	<path fill="#F3F3F3" d="M2.4655151,6.5375366C2.8163452,7.3106079,3,8.1483765,3,9
		c0,1.6524048-0.6958008,3.2266846-1.887085,4.3532104C1.0459595,12.9197388,1,12.4736328,1,12
		C1,10.0111084,1.5385132,8.1491089,2.4655151,6.5375366z"/>
	<path fill="#FEE2CC" d="M12,23c-5.8544922,0-6.6083984-0.9506836-6.9306641-4.9799805C6.5087891,16.4614258,9.1396484,15.5,12,15.5
		s5.4912109,0.9614258,6.9306641,2.5200195C18.6083984,22.0493164,17.8544922,23,12,23z"/>
	<path fill="#D32E2E" d="M19.9031372,18.3273926c0.0136719-0.1477661,0.0296021-0.2879028,0.0411987-0.4431152
		c0.0097656-0.1313477-0.0332031-0.2612305-0.1181641-0.3618164C18.2353516,15.6582031,15.2363281,14.5,12,14.5
		s-6.2353516,1.1582031-7.8261719,3.0224609c-0.0849609,0.1005859-0.1279297,0.2304688-0.1181641,0.3618164
		c0.0026855,0.0356445,0.0067139,0.0664673,0.0094604,0.1016846c-1.3425293-0.8966064-2.2373047-2.0844116-2.6964722-3.5397339
		C3.0176392,13.1213379,4,11.1181641,4,9c0-1.2003784-0.3254395-2.3699951-0.9154663-3.4177246
		C4.9712524,2.96875,7.9713135,1.2206421,11.387146,1.0310669C8.3653564,1.3390503,6,3.8982544,6,7c0,3.3085938,2.6914063,6,6,6
		s6-2.6914063,6-6c0-3.1017456-2.3653564-5.6609497-5.387146-5.9689331
		c3.4158325,0.1895752,6.4158936,1.9376831,8.3026123,4.5512085C20.3254395,6.6300049,20,7.7996216,20,9
		c0,2.1469727,1.0053101,4.1703491,2.6912842,5.4946289C22.2525635,16.1517334,21.331604,17.4222412,19.9031372,18.3273926z"/>
	<path fill="#F3F3F3" d="M22.9085083,13.375C21.7039795,12.2470703,21,10.6651001,21,9
		c0-0.8516235,0.1836548-1.6893921,0.5344849-2.4624634C22.4614868,8.1491089,23,10.0111084,23,12
		C23,12.4837646,22.9638062,12.9372559,22.9085083,13.375z"/>
	<path fill="#D32E2E" d="M19.9031372,18.3273926c0.0136719-0.1477661,0.0296021-0.2879028,0.0411987-0.4431152
		c0.0097656-0.1313477-0.0332031-0.2612305-0.1181641-0.3618164C18.2353516,15.6582031,15.2363281,14.5,12,14.5
		s-6.2353516,1.1582031-7.8261719,3.0224609c-0.0849609,0.1005859-0.1279297,0.2304688-0.1181641,0.3618164
		c0.0026855,0.0356445,0.0067139,0.0664673,0.0094604,0.1016846c-1.3425293-0.8966064-2.2373047-2.0844116-2.6964722-3.5397339
		C3.0176392,13.1213379,4,11.1181641,4,9c0-1.2003784-0.3254395-2.3699951-0.9154663-3.4177246
		C4.9712524,2.96875,7.9713135,1.2206421,11.387146,1.0310669C8.3653564,1.3390503,6,3.8982544,6,7c0,3.3085938,2.6914063,6,6,6
		s6-2.6914063,6-6c0-3.1017456-2.3653564-5.6609497-5.387146-5.9689331
		c3.4158325,0.1895752,6.4158936,1.9376831,8.3026123,4.5512085C20.3254395,6.6300049,20,7.7996216,20,9
		c0,2.1469727,1.0053101,4.1703491,2.6912842,5.4946289C22.2525635,16.1517334,21.331604,17.4222412,19.9031372,18.3273926z"/>
	<linearGradient id="SVGID_1_" gradientUnits="userSpaceOnUse" x1="8.5331745" y1="14.5502071" x2="16.7871456" y2="22.8041782">
		<stop  offset="0" style="stop-color:#010101;stop-opacity:0.1"/>
		<stop  offset="1" style="stop-color:#010101;stop-opacity:0"/>
	</linearGradient>
	<path fill="url(#SVGID_1_)" d="M12,23c5.8544922,0,6.6083984-0.9506836,6.9306641-4.9799805
		C17.4912109,16.4614258,14.8603516,15.5,12,15.5s-5.4912109,0.9614258-6.9306641,2.5200195l4.9283447,4.9283447
		C10.5890503,22.9838867,11.251709,23,12,23z"/>
	<path fill="#303C42" d="M9.25,17c-0.3896484,0-0.75,0.2421875-0.75,2s0.3603516,2,0.75,2S10,20.7578125,10,19S9.6396484,17,9.25,17
		z"/>
	<path fill="#303C42" d="M14.75,21c0.3896484,0,0.75-0.2421875,0.75-2s-0.3603516-2-0.75-2S14,17.2421875,14,19
		S14.3603516,21,14.75,21z"/>
	<linearGradient id="SVGID_2_" gradientUnits="userSpaceOnUse" x1="1.020444" y1="7.1527424" x2="22.6441307" y2="17.2360325">
		<stop  offset="0" style="stop-color:#FFFFFF;stop-opacity:0.2"/>
		<stop  offset="1" style="stop-color:#FFFFFF;stop-opacity:0"/>
	</linearGradient>
	<path fill="url(#SVGID_2_)" d="M24,12c0-6.6166992-5.3828125-12-12-12S0,5.3833008,0,12
		c0,3.2684326,1.4207153,5.694458,4.2019043,7.2302246C4.7543945,23.104126,6.4399414,24,12,24
		c5.4047852,0,7.1515503-0.8381958,7.7524414-4.4431763C22.5635986,18.1030273,24,15.5686035,24,12z"/>
	<path fill="#44B3E6" d="M5.0693359,18.0200195"/>
	<path opacity="0.1" fill="#010101" d="M1.112915,13.3532104c0.180481-0.1707153,0.345459-0.3546753,0.5025024-0.5446167
		c-0.201416-0.0720215-0.3937378-0.1529541-0.5892334-0.2307739C1.0459595,12.8417358,1.0739136,13.100769,1.112915,13.3532104z"/>
	<path opacity="0.1" fill="#010101" d="M21.0501709,9.7305908c0.173584,1.3911743,0.8318481,2.6831665,1.8583374,3.6444092
		C22.9638062,12.9372559,23,12.4837646,23,12c0-1.3261719-0.2578735-2.5873413-0.6922607-3.7640991
		C21.9578857,8.760437,21.534729,9.2595215,21.0501709,9.7305908z"/>
	<path opacity="0.1" fill="#010101" d="M2.6204834,13.1298218c-0.3585815,0.4850464-0.7732544,0.9318848-1.2518311,1.3164063
		c0.4591675,1.4553223,1.3539429,2.6431274,2.6964722,3.5397339c-0.0027466-0.0352173-0.0067749-0.06604-0.0094604-0.1016846
		c-0.0097656-0.1313477,0.0332031-0.2612305,0.1181641-0.3618164C5.7646484,15.6582031,8.7636719,14.5,12,14.5
		s6.2353516,1.1582031,7.8261719,3.0224609c0.0849609,0.1005859,0.1279297,0.2304688,0.1181641,0.3618164
		c-0.0115967,0.1552124-0.0275269,0.2953491-0.0411987,0.4431152c1.4284668-0.9051514,2.3494263-2.1756592,2.788147-3.8327637
		c-1.2849121-1.0092773-2.1705933-2.4255371-2.5211182-3.9921265C17.4630127,12.6350708,13.3501587,14,8.75,14
		C6.5615234,14,4.4901123,13.6830444,2.6204834,13.1298218z"/>
</g>
<g>
</g>
<g>
</g>
<g>
</g>
<g>
</g>
<g>
</g>
<g>
</g>
<g>
</g>
<g>
</g>
<g>
</g>
<g>
</g>
<g>
</g>
<g>
</g>
<g>
</g>
<g>
</g>
<g>
</g>
</svg>
